PathFileType	4	(X/Y/Z)	C:/Users/beibeiliu/ov580/test_trc\sequence.25_training_dense_left.trc
DataRate	CameraRate	NumFrames	NumMarkers	Units	OrigDataRate	OrigDataStartFrame	OrigNumFrames
120	120	10	19	mm	120	76	300
Frame#	Time	ThumbCMC			ThumbMCP			ThumbIP			ThumbTip			IndexMCP			IndexPIP			IndexTip			MiddleMCP			MiddlePIP			MiddleTip			RingMCP			RingPIP			RingTip			PinkyMCP			PinkyPIP			PinkyTip			BackHand1			BackHand2			BackHand3	
		X0	Y0	Z0	X1	Y1	Z1	X2	Y2	Z2	X3	Y3	Z3	X4	Y4	Z4	X5	Y5	Z5	X6	Y6	Z6	X7	Y7	Z7	X8	Y8	Z8	X9	Y9	Z9	X10	Y10	Z10	X11	Y11	Z11	X12	Y12	Z12	X13	Y13	Z13	X14	Y14	Z14	X15	Y15	Z15	X16	Y16	Z16	X17	Y17	Z17	X18	Y18	Z18	
75	0.625	-203.891	20.3962	39.2118	-190.298	-8.61966	36.405	-190.178	-31.3944	27.6683	-202.738	-52.71	23.2006	-197.02	-27.8999	-6.72291	-187.07	-54.5285	-3.96	-176.099	-72.8136	8.71667	-208.298	-40.1684	-6.44699	-201.769	-65.8671	0.791903	-193.246	-85.5864	24.5278	-226.967	-45.6828	14.6984	-215.585	-48.8401	39.7884	-222.359	-21.9772	54.0132	-242.092	-40.7689	21.6399	-233.621	-42.6143	45.0464	-226.687	-15.9987	49.4546	-243.159	-0.458861	6.55556	-253.275	25.9296	23.046	-228.298	23.8266	14.2477	
76	0.633333	-206.235	21.8525	39.2477	-189.615	-3.99036	39.6617	-192.954	-27.673	29.6211	-199.241	-51.1228	25.4782	-190.777	-20.9911	-3.78515	-179.066	-46.9849	-2.67181	-173.603	-67.3637	10.7781	-205.11	-40.0721	-4.79503	-197.096	-64.44	4.47799	-187.633	-77.196	28.7017	-221.01	-43.0512	15.2694	-216.176	-47.1901	45.0088	-221.955	-24.2067	55.3134	-240.007	-44.4997	25.2016	-230.927	-41.929	46.9467	-228.752	-12.1033	52.8466	-247.065	0.45939	10.4257	-259.359	18.9976	19.9637	-229.992	20.9485	11.9293	
77	0.641667	-214.633	24.8671	40.8964	-193.733	0.0913427	39.4807	-189.508	-24.3925	33.0001	-196.941	-45.5443	28.2013	-192.753	-19.6607	-2.41903	-177.793	-43.1625	-1.03359	-168.449	-64.3771	12.2701	-202.368	-35.0864	-3.58393	-191.018	-57.744	5.80235	-186.882	-70.7644	33.9755	-219.429	-43.4401	17.8976	-214.588	-44.2312	46.0481	-222.504	-19.321	55.6511	-234.634	-44.1517	25.4649	-226.965	-38.7665	48.2721	-227.846	-15.4031	50.6549	-249.136	-1.68496	6.82106	-261.989	18.3457	21.8799	-233.684	21.3729	12.3192	
78	0.65	-213.887	28.6811	43.1836	-193.434	2.16294	39.7961	-190.119	-20.0478	34.1617	-198.057	-41.3461	28.461	-189.155	-17.9042	-0.611828	-174.752	-36.2972	0.209101	-164.572	-56.3614	11.7711	-204.381	-32.7906	-2.0302	-185.542	-57.3038	9.67497	-178.189	-67.4809	33.8307	-217.805	-40.0545	15.4297	-212.213	-44.7598	45.1567	-219.802	-22.5489	55.7664	-235.011	-41.281	22.7016	-225.111	-37.2707	48.4404	-229.081	-13.9775	52.2291	-247.18	0.12561	10.3696	-261.124	16.588	21.1941	-232.564	23.8933	15.686	
79	0.658333	-216.746	26.8889	42.8118	-193.459	4.6446	43.3696	-185.571	-19.2922	36.6117	-193.077	-42.0532	30.5017	-189.896	-14.5574	1.00151	-172.658	-37.8603	3.39929	-160.102	-52.1333	12.1984	-199.918	-32.1301	-0.798741	-182.631	-50.6829	7.8108	-176.65	-66.2557	32.9305	-211.429	-41.6681	17.7916	-210.02	-43.2832	44.3939	-218.405	-20.603	55.3111	-231.148	-42.774	23.2711	-224.718	-41.3145	47.1188	-229.314	-16.5237	52.6031	-248.659	-2.27265	10.1104	-261.25	16.4276	18.5072	-234.58	23.8945	13.8395	
80	0.666667	-220.106	26.6646	42.4321	-193.329	8.5997	47.0817	-187.904	-15.6003	36.643	-190.617	-37.5204	33.2708	-185.29	-13.4937	-0.0284263	-169.311	-33.4329	3.96124	-153.446	-47.4395	16.1729	-196.673	-29.544	-0.215074	-178.801	-50.3903	10.0225	-170.756	-60.3048	34.4009	-210.081	-36.8456	16.9141	-203.731	-39.5267	41.8578	-217.973	-15.4896	53.4511	-228.389	-45.9777	25.6752	-219.88	-38.4786	44.6382	-229.19	-16.068	53.4395	-246.461	-6.63305	4.86148	-261.402	15.1474	20.2149	-236.595	24.0628	14.8095	
81	0.675	-220.383	31.5702	43.0669	-194.479	10.5732	44.988	-184.832	-11.5988	37.3826	-186.566	-34.2789	34.388	-185.841	-6.94069	1.0255	-169.801	-25.6999	3.10424	-153.395	-42.912	16.4873	-191.721	-23.9545	0.205467	-172.282	-41.861	10.7299	-168.214	-56.4109	37.2559	-208.998	-36.1898	17.5071	-202.786	-38.6357	43.2875	-218.055	-12.3432	53.4487	-221.544	-41.0461	25.5026	-216.281	-35.6823	46.1767	-230.665	-13.8003	53.628	-248.014	-7.09033	6.78174	-265.467	8.17459	19.0039	-238.631	22.1813	13.8789	
82	0.683333	-224.038	32.8801	39.4122	-198.834	16.9103	44.1356	-185.658	-7.86281	36.4765	-186.717	-29.7152	31.9849	-184.832	-2.84746	-1.32116	-166.655	-18.036	2.56701	-151.973	-34.7462	14.3556	-194.003	-20.352	-0.426467	-169.625	-38.4426	13.4886	-163.348	-48.1237	40.1327	-204.788	-34.2378	17.8667	-200.29	-34.3211	44.1759	-214.613	-10.1877	52.4099	-222.639	-39.8077	23.3436	-214.221	-34.9141	47.5441	-227.184	-13.7947	52.428	-244.026	-6.71436	5.10885	-265.611	8.94364	17.5175	-244.207	22.0428	11.6586	
83	0.691667	-230.861	33.7925	39.1272	-197.689	21.3866	42.299	-187.267	-0.980878	35.4413	-182.65	-25.0514	32.996	-187.427	1.38224	-1.87012	-167.116	-14.1201	1.89653	-148.8	-25.6516	11.6881	-191.283	-21.9813	-1.07493	-170.505	-34.706	12.2096	-160.042	-40.673	37.2022	-203.368	-30.912	17.1114	-195.822	-29.3726	43.6101	-216.115	-9.19597	53.2577	-219.535	-40.4081	26.4714	-212.557	-33.128	48.9847	-224.933	-8.35464	50.0853	-246.477	-11.5871	7.34699	-268.842	1.89361	19.7134	-245.458	20.3084	10.1573	
84	0.7	-230.758	35.255	34.8464	-199.158	24.1628	39.2933	-182.08	5.3214	35.1417	-178.556	-17.9046	33.8785	-189.746	5.41143	-4.01462	-165.465	-9.7102	1.44118	-147.12	-14.8264	8.20598	-188.627	-14.24	-1.21375	-168.539	-27.0184	8.45209	-152.101	-29.973	34.6646	-199.829	-29.1283	17.7737	-192.574	-20.3113	44.5843	-213.813	-3.76044	51.5306	-211.715	-35.4151	27.1271	-208.886	-27.6511	49.6667	-222.432	-5.2471	50.2651	-247.11	-13.5952	6.07272	-270.106	1.07671	21.7057	-248.073	20.0599	9.52202	
